<svg width="56" height="53" viewBox="0 0 56 53" fill="none" xmlns="http://www.w3.org/2000/svg">
<g clip-path="url(#clip0)">
<path d="M10.3392 0H15.7124V3.26312H28.214C38.1368 3.26312 46.1835 7.0279 51.0187 13.1265H29.364C29.1279 13.1166 28.8904 13.1116 28.6517 13.1116H24.2245C23.7221 11.2 21.9728 9.78927 19.8917 9.78927C17.4188 9.78927 15.4141 11.7814 15.4141 14.2389C15.4141 16.2968 16.8199 18.0285 18.7293 18.5371V25.5113H15.7125V31.444H18.7293H7.05591H10.3395V25.5113H7.05591V3.26312H10.3392V0Z" fill="#1665FF"/>
<path d="M44.3188 29.4852H55.9659C55.9257 30.1901 55.8586 30.8845 55.7653 31.5674H43.9141C44.1002 30.8907 44.2366 30.1955 44.3188 29.4852Z" fill="#1665FF"/>
<path d="M43.0193 33.947H55.3242C55.157 34.6556 54.9596 35.35 54.7332 36.0288H41.7896C42.2565 35.3699 42.6684 34.6739 43.0193 33.947Z" fill="#1665FF"/>
<path d="M39.695 38.4084H53.7901C53.4747 39.0901 53.127 39.7529 52.7475 40.3952H37.0183C37.986 39.824 38.8834 39.1569 39.695 38.4084Z" fill="#1665FF"/>
<path d="M28.2139 52.5055C38.6353 52.5055 46.6246 48.6972 51.308 42.5367H30.6656C30.0059 42.616 29.3337 42.6571 28.6516 42.6571H18.7292V37.9701H4.83447V41.8841H7.0558V52.5055H28.2139Z" fill="#1665FF"/>
<path d="M40.2371 17.8855C39.3482 16.9812 38.3408 16.1808 37.2385 15.506H52.6702C53.1319 16.2714 53.549 17.0653 53.9195 17.8855H40.2371Z" fill="#1665FF"/>
<path d="M42.145 20.2649H54.8383C55.0583 20.9443 55.2484 21.6387 55.4077 22.3469H43.26C42.9459 21.6228 42.5725 20.927 42.145 20.2649Z" fill="#1665FF"/>
<path d="M44.0476 24.7263H55.8201C55.916 25.5056 55.9764 26.2992 56 27.1059H44.3892C44.3439 26.2938 44.2281 25.499 44.0476 24.7263Z" fill="#1665FF"/>
<path d="M19.9253 17.1363C21.5674 17.1363 22.8985 15.8135 22.8985 14.1818C22.8985 12.55 21.5674 11.2272 19.9253 11.2272C18.2833 11.2272 16.9521 12.55 16.9521 14.1818C16.9521 15.8135 18.2833 17.1363 19.9253 17.1363Z" fill="#1665FF"/>
<path d="M2.71323 52.5921C4.1781 52.5921 5.37464 51.4017 5.37464 49.9443C5.37464 48.487 4.1781 47.2966 2.71323 47.2966C1.25563 47.2966 0.059082 48.487 0.059082 49.9443C0.059082 51.4017 1.25563 52.5921 2.71323 52.5921ZM2.71323 51.986C1.58921 51.986 0.668233 51.0698 0.668233 49.9443C0.668233 48.8189 1.58921 47.9026 2.71323 47.9026C3.84451 47.9026 4.76549 48.8189 4.76549 49.9443C4.76549 51.0698 3.84451 51.986 2.71323 51.986ZM1.81402 51.2862H2.42316V50.1824H2.51743L3.41666 51.2862H4.14184L3.1846 50.1031C3.53994 49.9804 3.71398 49.7568 3.71398 49.4177C3.71398 48.9632 3.40215 48.6097 2.88002 48.6097H1.81402V51.2862ZM2.42316 49.6702V49.1652H2.80751C2.98155 49.1652 3.11208 49.2517 3.11208 49.4177C3.11208 49.5692 2.98155 49.6702 2.80751 49.6702H2.42316Z" fill="#1665FF"/>
</g>
<defs>
<clipPath id="clip0">
<rect width="56" height="52.7059" fill="white"/>
</clipPath>
</defs>
</svg>
